<svg version="1" xmlns="http://www.w3.org/2000/svg" width="933.333" height="933.333" viewBox="0 0 700.000000 700.000000"><path d="M162.9 167.3c-3.4 1.3-7 3.7-9.8 6.6l-4.4 4.6L95.8 337c-29.1 87.2-53.1 159.3-53.3 160.3-.2.9-.7 2.2-1.1 2.9-.4.6-.7 3.9-.6 7.4.1 11.1 5.3 19.3 15 24.1l5.7 2.8 85.5.1c47 .1 87.8-.3 90.5-.8 5.9-1 13.2-5.7 16.6-10.6 1.8-2.7 12.9-33.1 15.4-42.2 2.6-9.9 75.8-226.8 77.3-229.2 3-4.8 6-7.3 12-10.1 4.7-2.2 6.7-2.5 18-2.5 7.4-.1 14.5.4 16.8 1.1 8.3 2.5 14.6 8.3 18.1 16.5 3.6 8.5 3.9 7.2-35.7 125.7-20.4 61-37.2 111.4-37.4 112-.1.5-.8 3-1.5 5.5-1.6 5.5-.9 14.5 1.5 19.5 2.5 5.4 8.6 11 14.1 13.2 4.5 1.7 9.8 1.8 92.8 1.8l88-.1 5.2-2.3c5.3-2.4 10.1-6.8 12.6-11.7.8-1.6 25.4-74.9 54.7-162.9 59.1-177.3 55.9-166.1 50.6-176.9-3-6.2-7-9.9-13.6-13l-4.5-2.1-235.2-.1c-231.8 0-235.2 0-240.4 1.9z"/></svg>